<svg xmlns="http://www.w3.org/2000/svg" xmlns:xlink="http://www.w3.org/1999/xlink" xmlns:lucid="lucid" width="520" height="377"><g transform="translate(-440 -73)" lucid:page-tab-id="0_0"><path d="M0 0h1870.87v1322.83H0z" fill="#fff"/><path d="M520 300c0 11.05-8.95 20-20 20s-20-8.95-20-20 8.95-20 20-20 20 8.95 20 20z" stroke="#3a414a" fill="#282c33"/><path d="M559.07 300.5H521v-1h38.07zm64.05 0h-22.2v-1h22.2z" stroke="#3a414a" stroke-width=".05" fill="#3a414a"/><path d="M521 300.5h-.56l.06-.48-.02-.52h.53z" fill="#3a414a"/><path d="M521.04 300.52h-.63l.08-.5-.02-.54h.58zm-.53-1l.03.5-.06.46h.52v-.96z" stroke="#3a414a" stroke-width=".05" fill="#3a414a"/><path d="M637.88 300l-14.26 4.64v-9.28z" fill="#3a414a"/><path d="M639.5 300l-16.38 5.32v-10.64zm-15.38 3.95l12.14-3.95-12.14-3.95z" stroke="#3a414a" stroke-width=".05" fill="#3a414a"/><use xlink:href="#a" transform="matrix(1,0,0,1,559.0740740711076,286.6666666666667) translate(0 17.77777777777778)"/><path d="M880.5 356.88l-.07 48.12-.25 1-.4.95-.52.87-.66.78-.78.66-.87.53-.94.38-.98.24-1 .08-50.6-.02v-1l50.56.02.88-.07.84-.2.8-.33.73-.45.66-.56.55-.67.45-.73.33-.8.2-.82.07-48zm-200 47.1l.07.88.2.84.33.8.45.73.56.66.67.55.73.45.8.33.82.2 51.45.02v1l-51.57-.02-1-.25-.95-.4-.87-.52-.78-.66-.66-.78-.53-.87-.38-.94-.24-.98-.08-1v-47.14h1z" stroke="#3a414a" stroke-width=".05" fill="#3a414a"/><path d="M684.64 356.38h-9.28l4.64-14.26z" fill="#3a414a"/><path d="M685.32 356.88h-10.64L680 340.5zm-9.27-1h7.9L680 343.74z" stroke="#3a414a" stroke-width=".05" fill="#3a414a"/><path d="M884.64 356.38h-9.28l4.64-14.26z" fill="#3a414a"/><path d="M885.32 356.88h-10.64L880 340.5zm-9.27-1h7.9L880 343.74z" stroke="#3a414a" stroke-width=".05" fill="#3a414a"/><use xlink:href="#b" transform="matrix(1,0,0,1,736.5740740740737,396.6666666666667) translate(0 17.77777777777778)"/><use xlink:href="#c" transform="matrix(1,0,0,1,736.5740740740737,396.6666666666667) translate(41.29629629629629 17.77777777777778)"/><path d="M875.02 189.58l1 .24.93.4.87.52.78.66.66.78.53.87.38.94.25 1 .07 48.12h-1l-.07-48-.2-.82-.33-.8-.45-.73-.56-.66-.67-.55-.73-.45-.8-.33-.84-.2-.88-.07-72.4.03v-1l72.44-.03zm-116.6.97l-73.3.02-.82.2-.8.33-.73.45-.66.56-.55.67-.45.73-.33.8-.2.84-.07.88v47.1h-1v-47.14l.08-1 .24-1 .4-.93.52-.87.66-.78.78-.66.87-.53.94-.38 1-.25 73.43-.02z" stroke="#3a414a" stroke-width=".05" fill="#3a414a"/><path d="M680 257.88l-4.64-14.26h9.28z" fill="#3a414a"/><path d="M680 259.5l-5.32-16.38h10.64zm-3.95-15.38l3.95 12.14 3.95-12.14z" stroke="#3a414a" stroke-width=".05" fill="#3a414a"/><path d="M880 257.88l-4.64-14.26h9.28z" fill="#3a414a"/><path d="M880 259.5l-5.32-16.38h10.64zm-3.95-15.38l3.95 12.14 3.95-12.14z" stroke="#3a414a" stroke-width=".05" fill="#3a414a"/><use xlink:href="#d" transform="matrix(1,0,0,1,758.4259259259247,176.66666666666666) translate(0 17.77777777777778)"/><path d="M480 86a6 6 0 0 1 6-6h428a6 6 0 0 1 6 6v62a6 6 0 0 1-6 6H486a6 6 0 0 1-6-6z" stroke="#000" stroke-opacity="0" fill="#fff" fill-opacity="0"/><use xlink:href="#e" transform="matrix(1,0,0,1,485,85) translate(4.111111111111171 37.33333333333333)"/><use xlink:href="#f" transform="matrix(1,0,0,1,485,85) translate(125.51851851851855 37.33333333333333)"/><use xlink:href="#g" transform="matrix(1,0,0,1,485,85) translate(161.0740740740741 37.33333333333333)"/><use xlink:href="#h" transform="matrix(1,0,0,1,485,85) translate(183.29629629629633 37.33333333333333)"/><use xlink:href="#i" transform="matrix(1,0,0,1,485,85) translate(255.66666666666669 37.33333333333333)"/><use xlink:href="#j" transform="matrix(1,0,0,1,485,85) translate(325.2962962962963 37.33333333333333)"/><path d="M720 300c0 22.1-17.9 40-40 40s-40-17.9-40-40 17.9-40 40-40 40 17.9 40 40z" stroke="#3a414a" fill="#fff"/><path d="M710 300c0 16.57-13.43 30-30 30s-30-13.43-30-30 13.43-30 30-30 30 13.43 30 30z" stroke="#3a414a" fill="#fff"/><g><use xlink:href="#k" transform="matrix(1,0,0,1,655,275) translate(18.134629629629632 31.263888888888886)"/></g><path d="M920 300c0 22.1-17.9 40-40 40s-40-17.9-40-40 17.9-40 40-40 40 17.9 40 40z" stroke="#3a414a" fill="#fff"/><path d="M910 300c0 16.57-13.43 30-30 30s-30-13.43-30-30 13.43-30 30-30 30 13.43 30 30z" stroke="#3a414a" fill="#fff"/><g><use xlink:href="#l" transform="matrix(1,0,0,1,855,275) translate(13.813641975308643 31.263888888888886)"/></g><defs><path fill="#333" d="M178-68c0 79-95 82-154 59v-54h12c1 35 22 52 60 52 50 0 69-58 33-82-39-24-105-21-105-85 0-67 86-66 142-53v49h-12l-6-29c-31-27-121-7-89 42 28 43 119 24 119 101" id="m"/><path fill="#333" d="M54-38c-1 25 24 26 44 20v12C71 10 25 9 25-35v-115H4c-2-14 14-10 21-15l18-38h11v38h38v15H54v112" id="n"/><path fill="#333" d="M32-163c41-10 102-14 102 39v112c8 3 24-2 21 12h-45l-4-17C83 13 3 13 13-46c-2-50 45-50 92-51 4-36-5-70-42-56-6 2-12 4-16 6-4 7 0 23-15 20v-36zM42-47c0 41 41 33 63 22v-59c-34 1-63-1-63 37" id="o"/><path fill="#333" d="M57-145c16-10 35-24 60-25v45c-19 1-8-30-40-17l-20 6v124l29 4v8H7v-8l21-4v-141c-8-3-24 2-21-12h48" id="p"/><g id="a"><use transform="matrix(0.06172839506172839,0,0,0.06172839506172839,0,0)" xlink:href="#m"/><use transform="matrix(0.06172839506172839,0,0,0.06172839506172839,12.345679012345679,0)" xlink:href="#n"/><use transform="matrix(0.06172839506172839,0,0,0.06172839506172839,18.51851851851852,0)" xlink:href="#o"/><use transform="matrix(0.06172839506172839,0,0,0.06172839506172839,28.333333333333336,0)" xlink:href="#p"/><use transform="matrix(0.06172839506172839,0,0,0.06172839506172839,35.67901234567901,0)" xlink:href="#n"/></g><path fill="#333" d="M52-115c0 93 80 130 150 87l7-35h11l-1 55c-23 7-52 12-83 12C60 4 19-37 15-115c-5-113 97-141 201-114l1 51h-12l-5-30c-15-9-39-16-62-16-66 0-86 41-86 109" id="q"/><path fill="#333" d="M166-85c3 67-44 102-111 85l1 64 29 4v9H6v-9l21-4v-217c-7-3-22 1-19-12h46l1 9c11-8 26-14 45-14 47 2 64 36 66 85zM56-13c53 14 83-14 78-72 7-53-33-79-78-60v132" id="r"/><g id="b"><use transform="matrix(0.06172839506172839,0,0,0.06172839506172839,0,0)" xlink:href="#q"/><use transform="matrix(0.06172839506172839,0,0,0.06172839506172839,14.814814814814813,0)" xlink:href="#o"/><use transform="matrix(0.06172839506172839,0,0,0.06172839506172839,24.629629629629626,0)" xlink:href="#r"/></g><path fill="#333" d="M111-226l-36 4v207c33-1 73 2 101-4l11-49h11l-3 68H10v-9l31-5v-208l-31-4v-10h101v10" id="s"/><path fill="#333" d="M90-170c52 0 76 32 76 87 0 54-24 87-77 87-51 0-75-34-75-87 0-54 24-87 76-87zM89-10c39 0 46-35 46-73 0-39-7-73-46-73-39 1-44 34-44 73s6 72 44 73" id="t"/><path fill="#333" d="M45-84c0 64 52 80 104 63 1 25-30 25-55 25-56 0-80-32-80-88 0-76 62-98 131-80v46h-10c-5-15-4-31-23-35-47-10-67 21-67 69" id="u"/><path fill="#333" d="M60-80l68-73c-7-3-20 0-17-12h58c3 13-13 9-20 12l-47 48 60 93c7 3 21-1 18 12h-68c-3-12 9-9 15-12L82-83 60-60v48c7 3 21-1 18 12H10v-8l21-4v-226l-24-4v-8h53v170" id="v"/><g id="c"><use transform="matrix(0.06172839506172839,0,0,0.06172839506172839,0,0)" xlink:href="#s"/><use transform="matrix(0.06172839506172839,0,0,0.06172839506172839,13.518518518518517,0)" xlink:href="#t"/><use transform="matrix(0.06172839506172839,0,0,0.06172839506172839,24.629629629629626,0)" xlink:href="#u"/><use transform="matrix(0.06172839506172839,0,0,0.06172839506172839,34.44444444444444,0)" xlink:href="#v"/></g><path fill="#333" d="M126-119c3-38-42-31-69-25v132l23 4v8H7v-8l21-4v-226l-24-4v-8h53l-1 98c31-22 99-31 99 31v109c7 3 23-1 20 12h-71v-8l22-4v-107" id="w"/><path fill="#333" d="M47-200c-23 0-25-39 0-38 13 0 18 7 20 19-1 11-8 19-20 19zM65-12l28 4v8H8v-8l28-4v-141l-24-4v-8h53v153" id="x"/><path fill="#333" d="M103-236c-39-15-35 32-34 71h44v15H69v136l35 6v8H15v-8l25-6v-136H11v-9l29-7c-6-59 23-100 80-84v36c-15 2-12-14-17-22" id="y"/><g id="d"><use transform="matrix(0.06172839506172839,0,0,0.06172839506172839,0,0)" xlink:href="#m"/><use transform="matrix(0.06172839506172839,0,0,0.06172839506172839,12.345679012345679,0)" xlink:href="#w"/><use transform="matrix(0.06172839506172839,0,0,0.06172839506172839,23.45679012345679,0)" xlink:href="#x"/><use transform="matrix(0.06172839506172839,0,0,0.06172839506172839,29.62962962962963,0)" xlink:href="#y"/><use transform="matrix(0.06172839506172839,0,0,0.06172839506172839,36.97530864197531,0)" xlink:href="#n"/></g><path fill="#3a414a" d="M194 0L95-120 63-95V0H30v-248h33v124l119-124h40L117-140 236 0h-42" id="z"/><path fill="#3a414a" d="M100-194c63 0 86 42 84 106H49c0 40 14 67 53 68 26 1 43-12 49-29l28 8c-11 28-37 45-77 45C44 4 14-33 15-96c1-61 26-98 85-98zm52 81c6-60-76-77-97-28-3 7-6 17-6 28h103" id="A"/><path fill="#3a414a" d="M179-190L93 31C79 59 56 82 12 73V49c39 6 53-20 64-50L1-190h34L92-34l54-156h33" id="B"/><path fill="#3a414a" d="M115-194c53 0 69 39 70 98 0 66-23 100-70 100C84 3 66-7 56-30L54 0H23l1-261h32v101c10-23 28-34 59-34zm-8 174c40 0 45-34 45-75 0-40-5-75-45-74-42 0-51 32-51 76 0 43 10 73 51 73" id="C"/><path fill="#3a414a" d="M100-194c62-1 85 37 85 99 1 63-27 99-86 99S16-35 15-95c0-66 28-99 85-99zM99-20c44 1 53-31 53-75 0-43-8-75-51-75s-53 32-53 75 10 74 51 75" id="D"/><path fill="#3a414a" d="M141-36C126-15 110 5 73 4 37 3 15-17 15-53c-1-64 63-63 125-63 3-35-9-54-41-54-24 1-41 7-42 31l-33-3c5-37 33-52 76-52 45 0 72 20 72 64v82c-1 20 7 32 28 27v20c-31 9-61-2-59-35zM48-53c0 20 12 33 32 33 41-3 63-29 60-74-43 2-92-5-92 41" id="E"/><path fill="#3a414a" d="M114-163C36-179 61-72 57 0H25l-1-190h30c1 12-1 29 2 39 6-27 23-49 58-41v29" id="F"/><path fill="#3a414a" d="M85-194c31 0 48 13 60 33l-1-100h32l1 261h-30c-2-10 0-23-3-31C134-8 116 4 85 4 32 4 16-35 15-94c0-66 23-100 70-100zm9 24c-40 0-46 34-46 75 0 40 6 74 45 74 42 0 51-32 51-76 0-42-9-74-50-73" id="G"/><g id="e"><use transform="matrix(0.07407407407407407,0,0,0.07407407407407407,0,0)" xlink:href="#z"/><use transform="matrix(0.07407407407407407,0,0,0.07407407407407407,17.77777777777778,0)" xlink:href="#A"/><use transform="matrix(0.07407407407407407,0,0,0.07407407407407407,32.592592592592595,0)" xlink:href="#B"/><use transform="matrix(0.07407407407407407,0,0,0.07407407407407407,45.925925925925924,0)" xlink:href="#C"/><use transform="matrix(0.07407407407407407,0,0,0.07407407407407407,60.74074074074074,0)" xlink:href="#D"/><use transform="matrix(0.07407407407407407,0,0,0.07407407407407407,75.55555555555554,0)" xlink:href="#E"/><use transform="matrix(0.07407407407407407,0,0,0.07407407407407407,90.37037037037035,0)" xlink:href="#F"/><use transform="matrix(0.07407407407407407,0,0,0.07407407407407407,99.18518518518516,0)" xlink:href="#G"/></g><path fill="#3a414a" d="M135-143c-3-34-86-38-87 0 15 53 115 12 119 90S17 21 10-45l28-5c4 36 97 45 98 0-10-56-113-15-118-90-4-57 82-63 122-42 12 7 21 19 24 35" id="H"/><g id="f"><use transform="matrix(0.07407407407407407,0,0,0.07407407407407407,0,0)" xlink:href="#E"/><use transform="matrix(0.07407407407407407,0,0,0.07407407407407407,14.814814814814813,0)" xlink:href="#H"/></g><use transform="matrix(0.07407407407407407,0,0,0.07407407407407407,0,0)" xlink:href="#E" id="g"/><path fill="#3a414a" d="M63-220v92h138v28H63V0H30v-248h175v28H63" id="I"/><path fill="#3a414a" d="M24-231v-30h32v30H24zM24 0v-190h32V0H24" id="J"/><path fill="#3a414a" d="M117-194c89-4 53 116 60 194h-32v-121c0-31-8-49-39-48C34-167 62-67 57 0H25l-1-190h30c1 10-1 24 2 32 11-22 29-35 61-36" id="K"/><path fill="#3a414a" d="M59-47c-2 24 18 29 38 22v24C64 9 27 4 27-40v-127H5v-23h24l9-43h21v43h35v23H59v120" id="L"/><g id="h"><use transform="matrix(0.07407407407407407,0,0,0.07407407407407407,0,0)" xlink:href="#I"/><use transform="matrix(0.07407407407407407,0,0,0.07407407407407407,16.22222222222222,0)" xlink:href="#J"/><use transform="matrix(0.07407407407407407,0,0,0.07407407407407407,22.074074074074073,0)" xlink:href="#K"/><use transform="matrix(0.07407407407407407,0,0,0.07407407407407407,36.888888888888886,0)" xlink:href="#J"/><use transform="matrix(0.07407407407407407,0,0,0.07407407407407407,42.74074074074073,0)" xlink:href="#L"/><use transform="matrix(0.07407407407407407,0,0,0.07407407407407407,50.14814814814814,0)" xlink:href="#A"/></g><path fill="#3a414a" d="M185-189c-5-48-123-54-124 2 14 75 158 14 163 119 3 78-121 87-175 55-17-10-28-26-33-46l33-7c5 56 141 63 141-1 0-78-155-14-162-118-5-82 145-84 179-34 5 7 8 16 11 25" id="M"/><g id="i"><use transform="matrix(0.07407407407407407,0,0,0.07407407407407407,0,0)" xlink:href="#M"/><use transform="matrix(0.07407407407407407,0,0,0.07407407407407407,17.77777777777778,0)" xlink:href="#L"/><use transform="matrix(0.07407407407407407,0,0,0.07407407407407407,25.185185185185183,0)" xlink:href="#E"/><use transform="matrix(0.07407407407407407,0,0,0.07407407407407407,40,0)" xlink:href="#L"/><use transform="matrix(0.07407407407407407,0,0,0.07407407407407407,47.407407407407405,0)" xlink:href="#A"/></g><path fill="#3a414a" d="M240 0l2-218c-23 76-54 145-80 218h-23L58-218 59 0H30v-248h44l77 211c21-75 51-140 76-211h43V0h-30" id="N"/><path fill="#3a414a" d="M96-169c-40 0-48 33-48 73s9 75 48 75c24 0 41-14 43-38l32 2c-6 37-31 61-74 61-59 0-76-41-82-99-10-93 101-131 147-64 4 7 5 14 7 22l-32 3c-4-21-16-35-41-35" id="O"/><path fill="#3a414a" d="M106-169C34-169 62-67 57 0H25v-261h32l-1 103c12-21 28-36 61-36 89 0 53 116 60 194h-32v-121c2-32-8-49-39-48" id="P"/><g id="j"><use transform="matrix(0.07407407407407407,0,0,0.07407407407407407,0,0)" xlink:href="#N"/><use transform="matrix(0.07407407407407407,0,0,0.07407407407407407,22.148148148148145,0)" xlink:href="#E"/><use transform="matrix(0.07407407407407407,0,0,0.07407407407407407,36.96296296296296,0)" xlink:href="#O"/><use transform="matrix(0.07407407407407407,0,0,0.07407407407407407,50.29629629629629,0)" xlink:href="#P"/><use transform="matrix(0.07407407407407407,0,0,0.07407407407407407,65.1111111111111,0)" xlink:href="#J"/><use transform="matrix(0.07407407407407407,0,0,0.07407407407407407,70.96296296296295,0)" xlink:href="#K"/><use transform="matrix(0.07407407407407407,0,0,0.07407407407407407,85.77777777777776,0)" xlink:href="#A"/></g><path fill="#3a414a" d="M32-163c41-10 102-14 102 39v112c8 3 24-2 21 12h-45l-4-17C83 13 3 13 13-46c-2-50 45-50 92-51 4-36-5-70-42-56-6 2-12 4-16 6-4 7 0 23-15 20v-36zM42-47c0 41 41 33 63 22v-59c-34 1-63-1-63 37" id="Q"/><use transform="matrix(0.08641975308641973,0,0,0.08641975308641973,0,0)" xlink:href="#Q" id="k"/><path fill="#3a414a" d="M81-9v9H4v-9l26-5 81-224h33l83 224 30 5v9h-99v-9l31-5-23-68H73L49-14zm38-203L78-98h82" id="R"/><use transform="matrix(0.08641975308641973,0,0,0.08641975308641973,0,0)" xlink:href="#R" id="l"/></defs></g></svg>